<svg width="20" height="20" viewBox="0 0 20 20" fill="none" xmlns="http://www.w3.org/2000/svg">
<path d="M14.6856 0.830034C15.7916 -0.276678 17.5865 -0.276678 18.6925 0.830034L19.1688 1.30709C20.2748 2.41392 20.2748 4.20838 19.1688 5.31443L11.4068 13.0803C11.0644 13.4188 10.6432 13.6668 10.1787 13.8006L6.24265 14.9264C5.91202 15.0208 5.55777 14.9264 5.31373 14.6508C5.07363 14.4422 4.97916 14.088 5.07363 13.7574L6.19935 9.82126C6.33318 9.3568 6.58115 8.93564 6.91966 8.5932L14.6856 0.830034ZM17.3228 2.16594C16.9882 1.79713 16.3899 1.79713 16.0199 2.16594L14.8745 3.31096L16.689 5.1255L17.8344 3.94467C18.2044 3.6101 18.2044 3.01181 17.8344 2.643L17.3228 2.16594ZM8.01783 10.3408L7.35656 12.6434L9.65918 11.9822C9.81662 11.9389 9.95439 11.8562 10.0685 11.7421L15.3547 6.45983L13.5402 4.64529L8.25793 9.93147C8.14378 10.0456 8.06112 10.1834 8.01783 10.3408ZM7.87219 2.36629C8.39569 2.36629 8.81685 2.78942 8.81685 3.31096C8.81685 3.83446 8.39569 4.25562 7.87219 4.25562H3.46376C2.59428 4.25562 1.88933 4.96018 1.88933 5.83006V16.5362C1.88933 17.4061 2.59428 18.1107 3.46376 18.1107H14.1699C15.0398 18.1107 15.7444 17.4061 15.7444 16.5362V12.1278C15.7444 11.6043 16.1655 11.1831 16.689 11.1831C17.2125 11.1831 17.6337 11.6043 17.6337 12.1278V16.5362C17.6337 18.4492 16.0829 20 14.1699 20H3.46376C1.55082 20 0 18.4492 0 16.5362V5.83006C0 3.91711 1.55082 2.36629 3.46376 2.36629H7.87219Z" fill="#1E73BE"/>
</svg>
