<svg width="24" height="21" viewBox="0 0 24 21" fill="none" xmlns="http://www.w3.org/2000/svg">
<g clip-path="url(#clip0_1879_5522)">
<path d="M5.07812 0H18.9199C20.3164 0 21.5859 0.572266 22.5059 1.49219L22.5488 1.53906C23.4434 2.45508 23.998 3.70703 23.998 5.08008V15.0723C23.998 16.4688 23.4258 17.7383 22.5059 18.6582C21.5859 19.5781 20.3164 20.1504 18.9199 20.1504H5.07812C3.68359 20.1504 2.41406 19.5781 1.49414 18.6582H1.49219C0.572266 17.7383 0 16.4688 0 15.0703V5.07812C0 3.68555 0.570312 2.41602 1.49219 1.49414L1.49609 1.48828C2.41797 0.570312 3.68555 0 5.07812 0ZM8.06836 5.80859H15.9316C16.3711 5.80859 16.7305 6.16797 16.7305 6.60742C16.7305 7.04688 16.3711 7.40625 15.9316 7.40625H8.06836C7.62891 7.40625 7.26953 7.04688 7.26953 6.60742C7.26953 6.16797 7.62891 5.80859 8.06836 5.80859ZM8.06836 12.7441H15.9316C16.3711 12.7441 16.7305 13.1035 16.7305 13.543C16.7305 13.9824 16.3711 14.3418 15.9316 14.3418H8.06836C7.62891 14.3418 7.26953 13.9824 7.26953 13.543C7.26953 13.1035 7.62891 12.7441 8.06836 12.7441ZM8.06836 9.27734H15.9316C16.3711 9.27734 16.7305 9.63672 16.7305 10.0762C16.7305 10.5156 16.3711 10.875 15.9316 10.875H8.06836C7.62891 10.875 7.26953 10.5156 7.26953 10.0762C7.26953 9.63672 7.62891 9.27734 8.06836 9.27734ZM18.9219 1.60156H5.07812C4.12109 1.60156 3.25195 1.99219 2.62305 2.62109L2.61914 2.625C1.99219 3.25195 1.60156 4.12109 1.60156 5.07812V15.0703C1.60156 16.0254 1.99414 16.8945 2.62305 17.5234L2.62109 17.5254C3.25195 18.1543 4.12109 18.5469 5.07617 18.5469H18.918C19.8711 18.5469 20.7402 18.1543 21.3711 17.5234C22.002 16.8926 22.3945 16.0234 22.3945 15.0703V5.07812C22.3945 4.14062 22.0176 3.28711 21.4102 2.6582L21.373 2.62305C20.7441 1.99414 19.877 1.60156 18.9219 1.60156Z" fill="#EBBC2E"/>
</g>
<defs>
<clipPath id="clip0_1879_5522">
<rect width="24" height="20.1504" fill="white"/>
</clipPath>
</defs>
</svg>
