<svg width="20" height="22" viewBox="0 0 20 22" fill="none" xmlns="http://www.w3.org/2000/svg">
<path d="M12.5 16.5V17.5C12.5 19.1569 11.1569 20.5 9.5 20.5C7.84315 20.5 6.5 19.1569 6.5 17.5V16.5001M12.5 16.5L6.5 16.5001M12.5 16.5H16.5C17.0523 16.5 17.5 16.0523 17.5 15.5V14.9141C17.5 14.6489 17.3945 14.3946 17.207 14.207L16.6963 13.6963C16.5706 13.5706 16.5 13.4 16.5 13.2222V9.5C16.5 9.32357 16.4936 9.14855 16.4805 8.9761M6.5 16.5001L2.5 16.5001C1.94772 16.5001 1.5 16.0521 1.5 15.4998V14.9141C1.5 14.6489 1.60544 14.3949 1.79297 14.2073L2.30371 13.6958C2.42939 13.5701 2.5 13.4002 2.5 13.2224V9.49998C2.5 5.63401 5.634 2.5 9.5 2.5C10.2116 2.5 10.8984 2.60618 11.5454 2.80357M16.4805 8.9761C17.6868 8.2873 18.5 6.98861 18.5 5.5C18.5 3.29086 16.7091 1.5 14.5 1.5C13.3298 1.5 12.2769 2.00253 11.5454 2.80357M16.4805 8.9761C15.8966 9.30949 15.2205 9.5 14.5 9.5C12.2909 9.5 10.5 7.70914 10.5 5.5C10.5 4.4611 10.8961 3.5147 11.5454 2.80357M16.4805 8.9761C16.4805 8.97609 16.4805 8.9761 16.4805 8.9761ZM11.5454 2.80357C11.5459 2.80371 11.5464 2.80385 11.5468 2.804" stroke="#EBBC2E" stroke-width="2" stroke-linecap="round" stroke-linejoin="round"/>
</svg>
