<svg width="24" height="22" viewBox="0 0 24 22" fill="none" xmlns="http://www.w3.org/2000/svg">
<g clip-path="url(#clip0_1_507)">
<path fill-rule="evenodd" clip-rule="evenodd" d="M3.19336 0H20.8086C22.5645 0 24.002 1.4375 24.002 3.19336V17.9043C24.002 19.6602 22.5645 21.0977 20.8086 21.0977H3.19336C1.4375 21.0957 0 19.6602 0 17.9043V3.19336C0 1.4375 1.4375 0 3.19336 0ZM12.625 15.1445H22.3164V19.2852H12.625V15.1445ZM1.56641 15.1445H11.2578V19.2852H1.56641V15.1445ZM1.56641 4.12695H11.2578V8.26758H1.56641V4.12695ZM1.56641 9.63672H11.2578V13.7773H1.56641V9.63672ZM12.625 4.12695H22.3164V8.26758H12.625V4.12695ZM12.625 9.63672H22.3164V13.7773H12.625V9.63672Z" fill="#EBBC2E"/>
</g>
<defs>
<clipPath id="clip0_1_507">
<rect width="24" height="21.0957" fill="white"/>
</clipPath>
</defs>
</svg>
