<svg width="96" height="96" viewBox="0 0 96 96" fill="none" xmlns="http://www.w3.org/2000/svg">
<g clip-path="url(#clip0_1_701)">
<path fill-rule="evenodd" clip-rule="evenodd" d="M71.2214 40.9887C74.973 40.9599 78.0078 43.9771 78 47.7297C77.9912 51.4813 74.9433 54.5459 71.1921 54.5752L54.7398 54.69L54.625 71.1604C54.5943 74.8807 51.5302 77.8936 47.782 77.8892C44.0328 77.8843 41.02 74.8632 41.0508 71.1418L41.1645 54.7852L24.7781 54.8999C21.0275 54.9292 17.9922 51.9115 18 48.1594C18.0088 44.4078 21.0573 41.3432 24.8084 41.3144L41.2602 41.1992L41.3755 24.7288C41.4067 21.0084 44.4703 17.9956 48.2185 18C51.9677 18.0044 54.9805 21.026 54.9493 24.7473L54.8355 41.104L71.2214 40.9887Z" fill="#272727"/>
</g>
<defs>
<clipPath id="clip0_1_701">
<rect width="60" height="59.8892" fill="white" transform="translate(18 18)"/>
</clipPath>
</defs>
</svg>
