<svg width="90" height="90" viewBox="0 0 90 90" fill="none" xmlns="http://www.w3.org/2000/svg">
<g clip-path="url(#clip0_1_712)">
<path fill-rule="evenodd" clip-rule="evenodd" d="M69.3807 42.8985H66.241C64.3187 42.8985 62.6321 41.2707 62.4998 39.3982C62.4998 29.4085 54.446 21.8973 44.387 21.8973H35.2087C25.1561 21.8973 17.004 29.9935 16.9968 39.9821V59.8249C16.9968 69.8145 25.1562 77.9035 35.2087 77.9035H54.8087C64.8675 77.9035 72.9988 69.8145 72.9988 59.8249V47.0076C72.9988 45.0119 71.3888 42.9005 69.3786 42.9005L69.3806 42.8984L69.3807 42.8985ZM34.4967 35.8988H44.9979C46.9222 35.8988 48.4982 37.4748 48.4982 39.3991C48.4982 41.3235 46.9222 42.8996 44.9979 42.8996L34.4967 42.8985C32.5724 42.8985 30.9964 41.3225 30.9964 39.3982C30.9964 37.4727 32.5724 35.8977 34.4967 35.8977V35.8988ZM55.4991 63.8988H34.4967C32.5724 63.8988 30.9964 62.3238 30.9964 60.3984C30.9964 58.474 32.5724 56.898 34.4967 56.898L55.4991 56.9001C57.4234 56.9001 58.9995 58.4751 58.9995 60.4004C58.9995 62.3248 57.4234 63.9009 55.4991 63.9009V63.8988Z" fill="#131212"/>
</g>
<defs>
<clipPath id="clip0_1_712">
<rect width="56" height="56" fill="white" transform="translate(16.9968 21.9012)"/>
</clipPath>
</defs>
</svg>
