<svg width="90" height="90" viewBox="0 0 90 90" fill="none" xmlns="http://www.w3.org/2000/svg">
<g clip-path="url(#clip0_1_710)">
<path fill-rule="evenodd" clip-rule="evenodd" d="M19.2923 22.6105H30.1063L30.092 22.4244V17.571C30.092 16.4877 31.2183 15.6 32.6022 15.6C33.9814 15.6 35.1125 16.4924 35.1125 17.571V22.4244L35.0982 22.6105H53.5144L53.5001 22.4244V17.571C53.5001 16.4877 54.6264 15.6 56.0056 15.6C57.3848 15.6 58.5158 16.4924 58.5158 17.571V22.4244L58.5015 22.6105H70.0075C70.499 22.6105 70.8999 23.0114 70.8999 23.5029V32.7898C70.8999 33.2814 70.499 33.6822 70.0075 33.6822H19.2923C18.8008 33.6775 18.3999 33.2766 18.3999 32.785V23.4982C18.3999 23.0066 18.8008 22.6105 19.2923 22.6105ZM33.361 55.463C32.2777 54.5228 32.1584 52.8812 33.0986 51.7931C34.0387 50.705 35.6804 50.5857 36.7685 51.5258L42.71 56.6799L52.4025 47.1162C53.419 46.1045 55.0702 46.1093 56.0819 47.1258C57.0937 48.1423 57.0889 49.7935 56.0724 50.8052L44.6571 62.0678C43.7026 63.0175 42.1564 63.0891 41.1208 62.1919L33.361 55.463ZM18.6242 35.7343H70.6804C70.8045 35.7343 70.8999 35.8345 70.8999 35.9586V74.0224C70.8999 74.1417 70.7997 74.2419 70.6804 74.2419H18.6242C18.5049 74.2419 18.4047 74.1417 18.4047 74.0224V35.9586C18.3999 35.8345 18.5001 35.7343 18.6242 35.7343ZM22.6186 39.7383H67.4018C67.65 39.7383 67.8504 39.953 67.8504 40.1869V70.1807C67.8504 70.4146 67.6357 70.6293 67.4018 70.6293H22.4039C22.17 70.6293 21.9553 70.4289 21.9553 70.1807V40.4016C21.9553 39.9101 22.3561 39.514 22.8429 39.514L22.6186 39.7383ZM55.786 29.8548C57.1652 29.8548 58.2963 28.9624 58.2963 27.8839V22.8109L58.282 22.6153H53.2949L53.2806 22.8109V27.6596C53.2806 28.7429 54.4069 29.6305 55.786 29.6305V29.8548ZM32.3779 29.8548C33.7571 29.8548 34.8882 28.9624 34.8882 27.8839V22.8109L34.8739 22.6153H29.882L29.8677 22.8109V27.6596C29.8677 28.7429 30.994 29.6305 32.3732 29.6305V29.8548H32.3779Z" fill="black"/>
</g>
<defs>
<clipPath id="clip0_1_710">
<rect width="52.5" height="58.6419" fill="white" transform="translate(18.3999 15.6)"/>
</clipPath>
</defs>
</svg>
