<svg width="90" height="90" viewBox="0 0 90 90" fill="none" xmlns="http://www.w3.org/2000/svg">
<g clip-path="url(#clip0_1_699)">
<path d="M30.9363 49.6904C32.6362 52.7574 34.5958 55.7015 37.1479 58.3903C39.7 61.0927 42.8719 63.5537 46.9871 65.65C47.2924 65.8004 47.5795 65.8004 47.8393 65.6956C48.2358 65.5452 48.6277 65.2262 49.0242 64.8297C49.3295 64.5244 49.7078 64.0413 50.1043 63.5081C51.6857 61.43 53.6407 58.846 56.407 60.1357C56.4663 60.1676 56.5118 60.1949 56.5756 60.2268L65.7905 65.527C65.8224 65.5407 65.8497 65.5726 65.8816 65.5862C67.0984 66.4202 67.5997 67.7099 67.6134 69.1683C67.6134 70.6585 67.0665 72.3265 66.2599 73.7392C65.198 75.6077 63.6349 76.8382 61.8256 77.6585C60.1075 78.4469 58.198 78.8753 56.3569 79.1487C53.4721 79.5726 50.7696 79.2991 48.0034 78.4515C45.3009 77.6175 42.5802 76.2366 39.6043 74.3955L39.3901 74.2588C38.0229 73.4065 36.5509 72.4951 35.1062 71.4196C29.8152 67.4274 24.4239 61.6578 20.9148 55.3095C17.9708 49.9775 16.3575 44.2262 17.2417 38.7438C17.7293 35.736 19.019 33.0061 21.2657 31.1969C23.2254 29.6155 25.8686 28.7542 29.282 29.055C29.6785 29.0869 30.0249 29.3147 30.2071 29.6474L36.1134 39.637C36.9793 40.7627 37.0841 41.8701 36.6147 42.9775C36.2182 43.889 35.4298 44.7229 34.3543 45.5114C34.0353 45.7848 33.657 46.0582 33.2605 46.3453C31.9389 47.3024 30.435 48.4098 30.9545 49.7177L30.9363 49.6904ZM51.1616 21.9C49.5164 21.9 48.1082 22.4788 46.937 23.6364C45.7657 24.7939 45.2006 26.2021 45.2006 27.861V38.3245C45.2006 39.9834 45.7794 41.3916 46.937 42.5491C48.0945 43.7067 49.5027 44.2854 51.1616 44.2854H56.0607C55.7189 45.6025 55.295 46.8512 54.7709 48.0224C54.256 49.2073 53.3764 50.3375 52.1642 51.4176C54.493 50.8115 56.562 49.9046 58.3894 48.706C60.2078 47.5211 61.7846 46.0354 63.088 44.2809H67.0392C68.6844 44.2809 70.0926 43.6884 71.2638 42.5446C72.435 41.387 73.0001 39.9788 73.0001 38.3199V27.861C73.0001 26.2158 72.4213 24.8076 71.2638 23.6364C70.1062 22.4651 68.6935 21.9 67.0392 21.9C61.7436 21.9 56.4526 21.9 51.1616 21.9ZM58.5398 37.691H50.6648C50.756 36.8525 51.0294 36.0641 51.4851 35.3258C51.9409 34.5875 52.7976 33.7125 54.0555 32.7054C54.8256 32.0901 55.3178 31.6207 55.5366 31.3017C55.7508 30.9827 55.8601 30.6774 55.8601 30.3903C55.8601 30.0804 55.7553 29.8115 55.5411 29.5927C55.3269 29.374 55.0581 29.2646 54.7345 29.2646C54.4018 29.2646 54.1238 29.3785 53.9142 29.6064C53.7 29.8388 53.5587 30.2399 53.4858 30.8186L50.8608 30.5862C50.9656 29.7887 51.1525 29.1643 51.4259 28.7177C51.6993 28.2711 52.0867 27.9293 52.588 27.6878C53.0893 27.4462 53.782 27.3278 54.6661 27.3278C55.5913 27.3278 56.3068 27.4417 56.8217 27.6696C57.3321 27.8929 57.7377 28.2438 58.0294 28.7132C58.3256 29.1871 58.4715 29.7112 58.4715 30.2946C58.4715 30.9143 58.3028 31.5068 57.9656 32.0765C57.6284 32.6416 57.0177 33.2614 56.1245 33.9404C55.5958 34.3323 55.2449 34.6103 55.0672 34.7698C54.8894 34.9293 54.6798 35.1344 54.4383 35.3896H58.5353V37.691H58.5398ZM64.1681 35.7815H59.3966V33.4528L64.1681 27.3232H66.4513V33.5895H67.6362V35.7815H66.4513V37.691H64.1681V35.7815ZM64.1681 33.5895V30.372L61.6479 33.5895H64.1681Z" fill="#272727"/>
</g>
<defs>
<clipPath id="clip0_1_699">
<rect width="56" height="57.4447" fill="white" transform="translate(17 21.9)"/>
</clipPath>
</defs>
</svg>
