<svg width="90" height="90" viewBox="0 0 90 90" fill="none" xmlns="http://www.w3.org/2000/svg">
<g clip-path="url(#clip0_1_700)">
<path d="M30.9337 49.6913C32.6344 52.7581 34.5938 55.7041 37.1443 58.3914C39.6959 61.0949 42.8696 63.5545 46.984 65.6496C47.2875 65.8014 47.5762 65.8014 47.8349 65.6956C48.2293 65.5438 48.6249 65.2253 49.0193 64.8297C49.3229 64.5261 49.7023 64.0409 50.0967 63.5085C51.6767 61.4283 53.635 58.8468 56.3993 60.1381C56.4603 60.168 56.5051 60.1991 56.5661 60.229L65.7836 65.5289C65.8135 65.5438 65.8434 65.5737 65.8745 65.5898C67.0888 66.4246 67.5901 67.7148 67.6051 69.1729C67.6051 70.6608 67.0589 72.3316 66.2539 73.7437C65.1914 75.6112 63.6264 76.8415 61.8199 77.6614C60.1043 78.4503 58.1909 78.8757 56.3533 79.1494C53.4682 79.5748 50.7648 79.3012 48.0016 78.4503C45.2994 77.6154 42.581 76.2344 39.6051 74.3969L39.3923 74.26C38.0251 73.4091 36.5521 72.4984 35.1101 71.4198C29.8102 67.4262 24.4195 61.656 20.9123 55.3097C17.9663 49.9799 16.3564 44.2247 17.2373 38.7431C17.7237 35.7362 19.0139 33.0029 21.2619 31.1952C23.2202 29.6164 25.8626 28.7505 29.279 29.0553C29.6734 29.0852 30.023 29.3128 30.2047 29.6463L36.1117 39.6389C36.9775 40.7624 37.0833 41.8709 36.613 42.9794C36.2186 43.8901 35.4286 44.7249 34.35 45.5149C34.0315 45.7886 33.652 46.0611 33.2576 46.3497C31.9364 47.3064 30.4335 48.4149 30.9486 49.7212L30.9337 49.6913Z" fill="black"/>
<path d="M51.1558 21.9004C49.5103 21.9004 48.1028 22.4799 46.9311 23.6379C45.7594 24.797 45.1936 26.2056 45.1936 27.8638V38.329C45.1936 39.9871 45.772 41.3957 46.9311 42.5537C48.089 43.7128 49.4977 44.2923 51.1558 44.2923H56.0555C55.7129 45.6078 55.292 46.8589 54.7653 48.0307C54.2525 49.2151 53.3705 50.3465 52.1585 51.4263C54.4894 50.8215 56.5557 49.913 58.3852 48.7148C60.2021 47.5305 61.782 46.0425 63.0849 44.2912H67.0336C68.6791 44.2912 70.0877 43.699 71.2595 42.5537C72.4312 41.3957 72.997 39.9871 72.997 38.329V27.8638C72.997 26.2183 72.4174 24.8096 71.2595 23.6379C70.1015 22.4661 68.6929 21.9004 67.0336 21.9004H51.1558ZM57.6815 25.6548H60.5091C61.0369 25.6548 61.4692 26.0872 61.4692 26.615V30.8305H65.6848C66.2137 30.8305 66.6449 31.2629 66.6449 31.7907V34.6194C66.6449 35.1472 66.2137 35.5796 65.6848 35.5796H61.4692V39.7951C61.4692 40.3229 61.0369 40.7553 60.5091 40.7553H57.6815C57.1525 40.7553 56.7202 40.3229 56.7202 39.7951V35.5796H52.5047C51.9768 35.5796 51.5445 35.1472 51.5445 34.6194V31.7907C51.5445 31.2629 51.9768 30.8305 52.5047 30.8305H56.7202V26.615C56.7202 26.0872 57.1525 25.6548 57.6815 25.6548Z" fill="#D8453E"/>
</g>
<defs>
<clipPath id="clip0_1_700">
<rect width="56" height="57.4466" fill="white" transform="translate(16.9968 21.9008)"/>
</clipPath>
</defs>
</svg>
