<svg width="90" height="90" viewBox="0 0 90 90" fill="none" xmlns="http://www.w3.org/2000/svg">
<g clip-path="url(#clip0_1_709)">
<path fill-rule="evenodd" clip-rule="evenodd" d="M48.409 49.5612V72.6622H41.5856V49.5612C39.3443 48.348 37.8217 45.9759 37.8217 43.2473C37.8217 39.2851 41.0347 36.0722 44.9973 36.0722C48.9595 36.0722 52.173 39.2851 52.173 43.2473C52.173 45.9759 50.6503 48.348 48.409 49.5612ZM34.9168 22.7905C36.2457 22.1352 36.7903 20.526 36.135 19.1984C35.4796 17.8704 33.8718 17.3248 32.5438 17.9797C27.1205 20.6549 22.9026 25.0806 20.2374 30.292C18.2686 34.1407 17.1461 38.4233 17.0108 42.7451C16.8745 47.1034 17.734 51.5058 19.7329 55.5578C22.1944 60.5495 26.3676 64.9893 32.5114 68.1326C33.828 68.8057 35.4414 68.283 36.114 66.9664C36.7872 65.6497 36.2649 64.0369 34.9482 63.3642C29.9182 60.7915 26.5234 57.2003 24.5423 53.1857C22.9445 49.9449 22.2572 46.4147 22.3666 42.9137C22.4774 39.3786 23.3948 35.8762 25.0054 32.7289C27.1619 28.5128 30.5599 24.9389 34.9168 22.7905ZM57.4509 17.9793C56.1229 17.3239 54.5145 17.8699 53.8592 19.1979C53.2038 20.526 53.7489 22.1352 55.0778 22.7901C59.4352 24.9389 62.8332 28.5123 64.9888 32.7289C66.599 35.8757 67.5168 39.3781 67.6271 42.9137C67.7365 46.4147 67.0492 49.9449 65.4519 53.1857C63.4708 57.2003 60.0759 60.7915 55.0459 63.3642C53.7293 64.0373 53.2075 65.6502 53.8802 66.9664C54.5528 68.283 56.1661 68.8053 57.4828 68.1326C63.6262 64.9898 67.7998 60.5495 70.2613 55.5578C72.2602 51.5058 73.1197 47.1034 72.9834 42.7451C72.8481 38.4233 71.7256 34.1407 69.7572 30.292C67.0916 25.0806 62.8742 20.6549 57.4509 17.9793ZM54.7283 29.7816C53.7279 29.0611 52.3329 29.2885 51.6124 30.2888C50.8923 31.2892 51.1193 32.6842 52.1196 33.4047C52.523 33.695 52.9185 34.0209 53.3064 34.3773C55.5719 36.4659 56.9154 39.251 57.1975 42.1978C57.4828 45.171 56.6912 48.3216 54.6827 51.1084C54.3418 51.5819 53.949 52.0618 53.5046 52.544C52.6683 53.4518 52.7262 54.8674 53.6354 55.7032C54.5442 56.539 55.9592 56.4802 56.7951 55.5724C57.3328 54.9895 57.8369 54.3688 58.3058 53.7166C60.9774 50.0073 62.0274 45.7867 61.6428 41.7776C61.2563 37.7429 59.4229 33.9352 56.3343 31.0873C55.8485 30.6393 55.313 30.2036 54.7283 29.7816ZM37.8746 33.4061C38.8749 32.6856 39.1023 31.2905 38.3818 30.2902C37.6613 29.2898 36.2662 29.0624 35.2659 29.7825C34.6807 30.2045 34.1457 30.6402 33.6599 31.0877C30.5709 33.9361 28.7374 37.7434 28.351 41.778C27.9663 45.7867 29.0163 50.0087 31.6883 53.718C32.1582 54.3697 32.6618 54.99 33.1991 55.5728C34.0349 56.4807 35.45 56.5395 36.3583 55.7036C37.268 54.8678 37.3258 53.4527 36.4896 52.5445C36.0452 52.0618 35.6524 51.5824 35.3115 51.1089C33.3035 48.322 32.5114 45.1719 32.7967 42.1987C33.0788 39.2523 34.4223 36.4668 36.6878 34.3782C37.0761 34.0222 37.4717 33.6964 37.8746 33.4061Z" fill="black"/>
</g>
<defs>
<clipPath id="clip0_1_709">
<rect width="56" height="54.9605" fill="white" transform="translate(16.9968 17.7)"/>
</clipPath>
</defs>
</svg>
