<svg width="90" height="90" viewBox="0 0 90 90" fill="none" xmlns="http://www.w3.org/2000/svg">
<g clip-path="url(#clip0_1_707)">
<path fill-rule="evenodd" clip-rule="evenodd" d="M46.3517 27.4339C45.134 26.9591 43.8766 26.7112 42.5801 26.7112C40.63 26.7112 39.0263 27.3351 37.7689 28.5724L26.9189 39.4123L28.0478 40.5512L23.9294 44.6988L17 37.7589L21.118 33.6405L22.3949 34.8878L33.1852 24.1076C34.67 22.6328 36.2641 21.9 37.9667 21.9C40.8278 21.9 43.6196 23.7416 46.3517 27.4339ZM62.8167 24.3646C63.9962 24.3646 65.1282 24.5656 66.1818 24.9343L63.5049 27.8318C57.4232 34.4112 64.2865 38.2179 70.3344 33.7011L72.6673 31.9593C72.8838 32.7856 72.9995 33.6533 72.9995 34.5474C72.9995 40.1716 68.4409 44.7307 62.8163 44.7307C60.9815 44.7307 59.2598 44.2453 57.7732 43.3959L52.8276 48.6463C57.4824 53.1024 62.1386 57.5576 66.7939 62.0128L60.4784 68.3283C56.0742 63.736 51.6719 59.1413 47.2704 54.5462L38.5988 63.751C37.9403 64.8771 36.7185 65.6341 35.3203 65.6341C33.2244 65.6341 31.5245 63.9347 31.5245 61.8383C31.5245 60.9323 31.8431 60.0997 32.3731 59.4471L32.3676 59.4416L32.4009 59.4129C32.6748 59.0834 33.0034 58.8013 33.3725 58.5798L43.1256 50.219L31.1007 37.6245L36.0905 32.6352C40.7193 37.0813 44.4768 40.6478 49.1116 45.0875L54.5184 40.4518C53.3316 38.7866 52.6335 36.749 52.6335 34.5479C52.6335 28.9233 57.1921 24.3646 62.8167 24.3646ZM30.0475 26.6223L25.0878 31.582L24.1372 30.6318L29.0969 25.6716L30.0475 26.6223Z" fill="#272727"/>
</g>
<defs>
<clipPath id="clip0_1_707">
<rect width="56" height="46.4288" fill="white" transform="translate(17 21.9)"/>
</clipPath>
</defs>
</svg>
