<svg width="90" height="90" viewBox="0 0 90 90" fill="none" xmlns="http://www.w3.org/2000/svg">
<g clip-path="url(#clip0_1_708)">
<path fill-rule="evenodd" clip-rule="evenodd" d="M60.3508 28.6527V32.3918H66.2473H66.2521V32.4015C68.1145 32.4064 69.8026 33.161 71.0216 34.3848C72.2309 35.5989 72.9855 37.2774 72.9903 39.1349H73V39.1445V74.5865V74.5914H72.9903C72.9855 76.4489 72.2309 78.137 71.0071 79.3608C69.793 80.5701 68.1145 81.3247 66.257 81.3296V81.3392H66.2473H36.4019H36.3971V81.3296C34.5396 81.3247 32.8466 80.5701 31.6276 79.3463C30.4183 78.1322 29.6637 76.4537 29.6589 74.5962H29.6492V74.5865V66.6487H23.7527H23.7479V66.6391C21.8904 66.6342 20.1974 65.8796 18.9784 64.6558C17.7691 63.4417 17.0145 61.7632 17.0097 59.9057H17V59.896V28.6527V28.6479H17.0097C17.0145 26.7856 17.7739 25.0974 18.9929 23.8784C20.207 22.6691 21.8855 21.9145 23.743 21.9097V21.9H23.7527H53.5981H53.6029V21.9097C55.4652 21.9145 57.1534 22.6691 58.3724 23.8929C59.5817 25.1071 60.3363 26.7856 60.3411 28.643H60.3508V28.6527ZM55.2331 32.3918V28.6527V28.643H55.2427C55.2427 28.2029 55.0541 27.7965 54.7542 27.4966C54.4591 27.2016 54.0479 27.0129 53.6078 27.0129V27.0226H53.6029H23.7575H23.7479V27.0129C23.3077 27.0129 22.9014 27.2016 22.6015 27.5015C22.3064 27.7965 22.1177 28.2077 22.1177 28.6479H22.1274V28.6527V59.896V59.9057H22.1177C22.1177 60.3459 22.3064 60.7522 22.6063 61.0521C22.9014 61.3472 23.3125 61.5358 23.7527 61.5358V61.5262H23.7575H29.6541V39.1445V39.1397H29.6637C29.6686 37.2774 30.428 35.5892 31.647 34.3703C32.8611 33.161 34.5396 32.4064 36.3971 32.4015V32.3918H36.4068H55.2331ZM67.8774 74.5865V39.1445V39.1349H67.8871C67.8871 38.6947 67.6985 38.2884 67.3986 37.9885C67.1035 37.6934 66.6923 37.5047 66.2521 37.5047V37.5144H66.2473H36.4019H36.3922V37.5047C35.9521 37.5047 35.5457 37.6934 35.2458 37.9933C34.9508 38.2884 34.7621 38.6995 34.7621 39.1397H34.7718V39.1445V74.5865V74.5962H34.7621C34.7621 75.0364 34.9508 75.4427 35.2507 75.7426C35.5457 76.0377 35.9569 76.2263 36.3971 76.2263V76.2167H36.4019H66.2473H66.257V76.2263C66.6972 76.2263 67.1035 76.0377 67.4034 75.7378C67.6985 75.4427 67.8871 75.0316 67.8871 74.5914H67.8774V74.5865Z" fill="#272727"/>
</g>
<defs>
<clipPath id="clip0_1_708">
<rect width="56" height="59.4392" fill="white" transform="translate(17 21.9)"/>
</clipPath>
</defs>
</svg>
