<svg width="90" height="90" viewBox="0 0 90 90" fill="none" xmlns="http://www.w3.org/2000/svg">
<path fill-rule="evenodd" clip-rule="evenodd" d="M67.3646 51.7477L72.7264 55.9655C73.0667 56.2357 73.2866 56.6293 73.3382 57.0607C73.3898 57.4921 73.269 57.9265 73.0021 58.2693L70.6618 61.2389L62.7204 54.9981L65.0607 52.0286C65.3316 51.6891 65.7256 51.4702 66.157 51.4196C66.5884 51.3689 67.0223 51.4906 67.3646 51.7581V51.7477ZM30.6115 55.9655C30.4398 55.9765 30.2676 55.9522 30.1056 55.8941C29.9437 55.836 29.7953 55.7453 29.6698 55.6276C29.5443 55.5099 29.4442 55.3677 29.3758 55.2098C29.3074 55.0518 29.2721 54.8816 29.2721 54.7095C29.2721 54.5374 29.3074 54.3671 29.3758 54.2092C29.4442 54.0513 29.5443 53.9091 29.6698 53.7914C29.7953 53.6737 29.9437 53.583 30.1056 53.5249C30.2676 53.4668 30.4398 53.4425 30.6115 53.4535H57.0881L55.143 55.9655H30.6115ZM32.1197 46.2714V35.5997C31.6252 35.8102 31.0715 35.8361 30.5595 35.6725C30.2228 35.5636 29.926 35.3573 29.7066 35.0796C29.4976 34.8008 29.3698 34.4696 29.3374 34.1227C29.3109 33.8008 29.3487 33.4768 29.4487 33.1696C29.5487 32.8625 29.7089 32.5783 29.9198 32.3337C29.9198 32.3337 29.9718 32.2765 30.003 32.2505L43.8732 21.4331C43.9622 21.3534 44.076 21.3068 44.1953 21.3011C44.3146 21.2955 44.4323 21.331 44.5285 21.4019L58.3986 32.1985L58.461 32.2557C58.7375 32.5239 58.9415 32.8576 59.0543 33.2259C59.167 33.5942 59.1848 33.985 59.1059 34.3619C59.032 34.6756 58.88 34.9654 58.6639 35.2044C58.4505 35.4417 58.1803 35.6207 57.8786 35.7245C57.6102 35.816 57.3263 35.8535 57.0433 35.8348C56.7604 35.816 56.4839 35.7414 56.23 35.6153V46.2506H54.8726V35.0328C54.8726 34.7884 45.345 27.263 44.2944 26.4413C43.1815 27.289 33.4719 34.7572 33.4719 35.0744V46.287L32.1197 46.2714ZM44.2424 34.1799C45.7974 34.1813 47.2885 34.7989 48.3891 35.8975C49.4896 36.9961 50.1099 38.486 50.114 40.041V46.2818H38.3813V40.041C38.3854 38.4878 39.0043 36.9994 40.1025 35.9011C41.2008 34.8029 42.6892 34.184 44.2424 34.1799ZM44.7625 35.22V40.0515H49.0738C49.0718 38.8561 48.6285 37.7035 47.829 36.8148C47.0296 35.9261 45.9302 35.3638 44.7417 35.2356L44.7625 35.22ZM44.7625 41.0708V45.2625H49.0738V41.076L44.7625 41.0708ZM43.7224 45.2625V41.076H39.4006V45.2677L43.7224 45.2625ZM43.7224 40.0619V35.2252C42.5348 35.3556 41.4367 35.9186 40.6377 36.8068C39.8387 37.695 39.3946 38.8463 39.3902 40.041L43.7224 40.0619ZM52.0954 22.3276H56.256V27.9599L52.0954 25.2088V22.3276ZM30.7727 62.9655C30.4496 62.9449 30.1464 62.8019 29.9248 62.5657C29.7033 62.3295 29.5799 62.0178 29.5799 61.694C29.5799 61.3701 29.7033 61.0584 29.9248 60.8222C30.1464 60.5861 30.4496 60.4431 30.7727 60.4224H51.7002L49.7291 62.9655H30.7727ZM47.2068 73.3668C47.2985 73.3589 47.3907 73.3589 47.4824 73.3668V73.4137L47.4304 74.0429C47.3524 75.0831 47.2848 75.9256 47.2848 76.6849H21.2399C20.2118 76.6849 19.2255 76.2779 18.4966 75.5528C17.7676 74.8278 17.3554 73.8437 17.3499 72.8156V16.6901C17.3499 15.6584 17.7597 14.6689 18.4892 13.9394C19.2188 13.2099 20.2082 12.8 21.2399 12.8H67.6922C68.723 12.8014 69.7111 13.2119 70.4395 13.9412C71.1679 14.6706 71.5771 15.6593 71.5771 16.6901V45.8138C71.5824 46.1513 71.5475 46.4882 71.4731 46.8175L71.2494 46.6355C70.3711 45.9437 69.3377 45.4761 68.2383 45.2729V16.6693C68.2348 16.53 68.1796 16.3969 68.0835 16.296C67.9874 16.1951 67.8572 16.1335 67.7182 16.1232H21.2399C21.095 16.1249 20.956 16.1805 20.8499 16.2793C20.7505 16.3854 20.6932 16.524 20.6887 16.6693V72.8104C20.6897 72.8823 20.7049 72.9534 20.7335 73.0194C20.762 73.0855 20.8034 73.1452 20.8551 73.1952C20.9592 73.2976 21.0991 73.3555 21.2451 73.3564L47.2068 73.3668ZM61.8467 72.6075C59.9952 73.4293 58.5078 73.8401 56.646 74.6878C52.7039 76.04 52.8443 76.9553 53.1408 73.0496L53.9209 66.3668L61.5554 56.4855L69.4968 62.7263L61.8519 72.6075H61.8467ZM55.2782 67.4069L60.4789 71.5154L56.8384 73.1328C53.9781 74.3966 54.0665 75.0051 54.5345 72.0563L55.2782 67.4069Z" fill="#272727"/>
</svg>
