<svg width="90" height="90" viewBox="0 0 90 90" fill="none" xmlns="http://www.w3.org/2000/svg">
<g clip-path="url(#clip0_1_711)">
<path d="M28.0858 45.649C28.0858 45.7054 28.0858 45.7618 28.0858 45.8131L30.3622 43.5265C30.6793 43.2073 31.0562 42.9538 31.4713 42.7803C31.8864 42.6068 32.3316 42.5168 32.7815 42.5153C33.2314 42.5139 33.6771 42.6011 34.0933 42.772C34.5095 42.9428 34.888 43.194 35.2071 43.5111C35.5263 43.8282 35.7798 44.2051 35.9533 44.6202C36.1268 45.0353 36.2168 45.4805 36.2183 45.9304C36.2197 46.3803 36.1325 46.8261 35.9616 47.2423C35.7908 47.6584 35.5396 48.0369 35.2225 48.3561L27.4142 56.2259C26.7842 56.8577 25.9327 57.2192 25.0406 57.2335C24.1485 57.2479 23.2859 56.914 22.6359 56.3028L14.6686 49.2994C14.0664 48.6814 13.7198 47.8589 13.6979 46.9963C13.676 46.1337 13.9805 45.2947 14.5505 44.6469C15.1206 43.9992 15.9141 43.5904 16.7724 43.5025C17.6308 43.4145 18.4907 43.6538 19.1803 44.1725L21.2311 45.9874C20.9708 40.3978 22.4001 34.8595 25.3326 30.0938C28.2421 25.3687 32.5393 21.657 37.6373 19.4657C39.4552 18.6864 41.3437 18.0838 43.277 17.6661C49.4676 16.2713 55.9518 17.1052 61.5882 20.0209C67.2245 22.9366 71.6515 27.7472 74.09 33.6058C74.8687 35.422 75.4646 37.3112 75.869 39.2455C76.8534 43.831 76.6219 48.5942 75.1974 53.0626C73.7506 57.5107 71.1834 61.5115 67.7428 64.6803C64.4571 67.7814 60.4984 70.0802 56.1764 71.3966C52.7036 72.4371 49.0453 72.7059 45.4577 72.1843C41.8701 71.6626 38.4398 70.3632 35.4071 68.3768C34.6449 67.8825 34.1104 67.1057 33.921 66.2173C33.7315 65.3289 33.9028 64.4016 34.3971 63.6395C34.8913 62.8774 35.6681 62.3428 36.5566 62.1534C37.445 61.964 38.3722 62.1352 39.1344 62.6295C40.0315 63.226 40.9804 63.7407 41.9696 64.1676C42.9139 64.5704 43.8918 64.8895 44.892 65.1212C47.9782 65.8461 51.2004 65.7506 54.2384 64.8443C57.5533 63.8212 60.5858 62.0435 63.0978 59.6507C65.6907 57.2689 67.6215 54.2553 68.7015 50.9041C69.7692 47.5763 69.946 44.0267 69.2142 40.6092C68.8972 39.1159 68.437 37.6565 67.8402 36.2513C66.0241 31.8586 62.7096 28.252 58.4854 26.0724C54.2613 23.8927 49.4013 23.2812 44.7689 24.3465C43.2702 24.6652 41.8069 25.1323 40.4007 25.7411C36.5831 27.3605 33.3635 30.1269 31.1876 33.6571C28.9709 37.2514 27.8899 41.4307 28.0858 45.649ZM44.6869 34.4313C44.6869 33.6004 45.0169 32.8037 45.6044 32.2162C46.1919 31.6287 46.9886 31.2987 47.8194 31.2987C48.6503 31.2987 49.447 31.6287 50.0345 32.2162C50.622 32.8037 50.952 33.6004 50.952 34.4313V44.1725L58.586 48.4125C59.3108 48.8163 59.8454 49.4915 60.0723 50.2895C60.2993 51.0876 60.1999 51.9431 59.796 52.6678C59.3922 53.3926 58.7169 53.9272 57.9189 54.1541C57.1209 54.381 56.2654 54.2816 55.5406 53.8778L46.5326 48.8687C45.9827 48.621 45.516 48.2197 45.1885 47.7131C44.8611 47.2065 44.6869 46.6162 44.6869 46.013V34.4313Z" fill="#272727"/>
</g>
<defs>
<clipPath id="clip0_1_711">
<rect width="63" height="55.4326" fill="white" transform="translate(13.5 17)"/>
</clipPath>
</defs>
</svg>
