<svg width="90" height="90" viewBox="0 0 90 90" fill="none" xmlns="http://www.w3.org/2000/svg">
<path d="M66 70.0838H24C23.0433 70.0838 22.25 69.2905 22.25 68.3338C22.25 67.3771 23.0433 66.5838 24 66.5838H66C66.9567 66.5838 67.75 67.3771 67.75 68.3338C67.75 69.2905 66.9567 70.0838 66 70.0838Z" fill="#272727"/>
<path d="M30.0666 63.0835H26.3333C24.0933 63.0835 22.25 61.2402 22.25 59.0002V38.8869C22.25 36.6469 24.0933 34.8035 26.3333 34.8035H30.0666C32.3066 34.8035 34.1499 36.6469 34.1499 38.8869V59.0002C34.1499 61.2402 32.3066 63.0835 30.0666 63.0835ZM26.3333 38.2802C26.0067 38.2802 25.75 38.5368 25.75 38.8635V59.0002C25.75 59.3269 26.0067 59.5835 26.3333 59.5835H30.0666C30.3933 59.5835 30.6499 59.3269 30.6499 59.0002V38.8869C30.6499 38.5602 30.3933 38.3035 30.0666 38.3035H26.3333V38.2802Z" fill="#272727"/>
<path d="M46.8667 63.0839H43.1334C40.8934 63.0839 39.05 61.2406 39.05 59.0006V31.4439C39.05 29.2039 40.8934 27.3606 43.1334 27.3606H46.8667C49.1067 27.3606 50.95 29.2039 50.95 31.4439V59.0006C50.95 61.2406 49.1067 63.0839 46.8667 63.0839ZM43.1334 30.8606C42.8067 30.8606 42.55 31.1172 42.55 31.4439V59.0006C42.55 59.3272 42.8067 59.5839 43.1334 59.5839H46.8667C47.1933 59.5839 47.45 59.3272 47.45 59.0006V31.4439C47.45 31.1172 47.1933 30.8606 46.8667 30.8606H43.1334Z" fill="#272727"/>
<path d="M63.6667 63.0829H59.9334C57.6934 63.0829 55.8501 61.2396 55.8501 58.9996V23.9996C55.8501 21.7596 57.6934 19.9162 59.9334 19.9162H63.6667C65.9067 19.9162 67.75 21.7596 67.75 23.9996V58.9996C67.75 61.2396 65.9067 63.0829 63.6667 63.0829ZM59.9334 23.4162C59.6068 23.4162 59.3501 23.6729 59.3501 23.9996V58.9996C59.3501 59.3262 59.6068 59.5829 59.9334 59.5829H63.6667C63.9934 59.5829 64.25 59.3262 64.25 58.9996V23.9996C64.25 23.6729 63.9934 23.4162 63.6667 23.4162H59.9334Z" fill="#272727"/>
</svg>
