<svg width="90" height="90" viewBox="0 0 90 90" fill="none" xmlns="http://www.w3.org/2000/svg">
<path d="M70.2387 73H20.461C18.7427 73 17.3499 71.6071 17.3499 69.8889V47.1778C17.3499 46.2816 17.7366 45.4289 18.4107 44.8383L23.5721 40.3334V20.1111C23.5721 18.3929 24.965 17 26.6832 17H70.2387C71.957 17 73.3499 18.3929 73.3499 20.1111V69.8889C73.3499 71.6071 71.957 73 70.2387 73ZM36.0165 30.468C36.7698 30.4689 37.4972 30.7431 38.0636 31.2396L53.6192 44.8507C54.2912 45.4379 54.6787 46.2854 54.6832 47.1778V66.7778H67.1276V23.2223H29.7943V34.8889L33.9663 31.2365C34.534 30.7404 35.2626 30.4673 36.0165 30.468ZM32.9054 57.4445H39.1276V66.7778H48.461V48.5996L36.0165 37.7107L23.5721 48.5996V66.7778H32.9054V57.4445Z" fill="#272727"/>
</svg>
