<svg width="96" height="97" viewBox="0 0 96 97" fill="none" xmlns="http://www.w3.org/2000/svg">
<g clip-path="url(#clip0_1_704)">
<path fill-rule="evenodd" clip-rule="evenodd" d="M79.0419 42.7183V76.3474H71.1812V71.1509H24.8188V76.3474H16.9581V42.7183H14.25V37.5492H20.8638L24.5497 26.0795C25.6373 22.6957 27.4501 19.625 30.9987 19.625H66.3691C69.9177 19.625 71.9612 22.6353 72.8181 26.074L75.6691 37.5437H81.7445V42.7128H79.0419V42.7183ZM36.2282 60.7743H59.4478V66.251H36.2282V60.7743ZM19.5894 48.0192C25.5055 48.2059 29.1255 50.6833 30.0538 55.8524H19.5894V48.0192ZM75.6636 48.0192C69.7474 48.2059 66.1274 50.6833 65.1991 55.8524H75.6636V48.0192ZM23.6873 37.5437H72.3127L70.2308 27.9252C69.6596 25.2885 68.0171 23.0088 65.3145 23.0088H31.6853C28.9827 23.0088 27.5984 25.3489 26.7689 27.9252L23.6873 37.5437Z" fill="#131212"/>
</g>
<defs>
<clipPath id="clip0_1_704">
<rect width="67.5" height="56.7224" fill="white" transform="translate(14.25 19.625)"/>
</clipPath>
</defs>
</svg>
