<svg width="24" height="24" viewBox="0 0 24 24" fill="none" xmlns="http://www.w3.org/2000/svg">
<g clip-path="url(#clip0_97_60)">
<path fill-rule="evenodd" clip-rule="evenodd" d="M19.076 14.5188L20.7994 15.8744C20.9088 15.9613 20.9794 16.0878 20.996 16.2265C21.0126 16.3652 20.9738 16.5048 20.888 16.615L20.1358 17.5695L17.5832 15.5635L18.3354 14.609C18.4225 14.4999 18.5492 14.4296 18.6878 14.4133C18.8265 14.397 18.966 14.4361 19.076 14.5221V14.5188ZM7.26263 15.8744C7.20743 15.878 7.15209 15.8702 7.10003 15.8515C7.04796 15.8328 7.00028 15.8037 6.95993 15.7658C6.91958 15.728 6.88742 15.6823 6.86544 15.6315C6.84345 15.5808 6.83211 15.5261 6.83211 15.4707C6.83211 15.4154 6.84345 15.3607 6.86544 15.31C6.88742 15.2592 6.91958 15.2135 6.95993 15.1757C7.00028 15.1378 7.04796 15.1087 7.10003 15.09C7.15209 15.0713 7.20743 15.0635 7.26263 15.067H15.7728L15.1477 15.8744H7.26263ZM7.7474 12.7585V9.32838C7.58845 9.39605 7.41048 9.40436 7.24591 9.35178C7.1377 9.31677 7.04229 9.25045 6.97177 9.16122C6.90458 9.07161 6.8635 8.96515 6.85308 8.85364C6.84457 8.75016 6.85674 8.64603 6.88888 8.5473C6.92103 8.44857 6.9725 8.35723 7.0403 8.2786C7.0403 8.2786 7.05702 8.26022 7.06705 8.25186L11.5253 4.77489C11.5539 4.74928 11.5904 4.7343 11.6288 4.73247C11.6671 4.73065 11.705 4.74208 11.7359 4.76486L16.1941 8.23514L16.2142 8.25353C16.303 8.33973 16.3686 8.44701 16.4048 8.56538C16.4411 8.68375 16.4468 8.80937 16.4214 8.93053C16.3977 9.03135 16.3488 9.12451 16.2793 9.20134C16.2108 9.2776 16.1239 9.33513 16.0269 9.3685C15.9407 9.39792 15.8494 9.40996 15.7585 9.40394C15.6675 9.39791 15.5787 9.37394 15.497 9.3334V12.7519H15.0607V9.14617C15.0607 9.06761 11.9983 6.64877 11.6607 6.38466C11.3029 6.65713 8.18202 9.05758 8.18202 9.15955V12.7636L7.7474 12.7585ZM11.6439 8.87203C12.1438 8.87247 12.623 9.07099 12.9768 9.4241C13.3305 9.77721 13.5299 10.2561 13.5312 10.7559V12.7619H9.76003V10.7559C9.76135 10.2567 9.96026 9.77829 10.3133 9.42528C10.6663 9.07226 11.1447 8.87335 11.6439 8.87203ZM11.8111 9.20635V10.7593H13.1969C13.1962 10.3751 13.0537 10.0046 12.7968 9.71895C12.5398 9.43329 12.1864 9.25255 11.8044 9.21137L11.8111 9.20635ZM11.8111 11.0869V12.4342H13.1969V11.0886L11.8111 11.0869ZM11.4768 12.4342V11.0886H10.0877V12.4359L11.4768 12.4342ZM11.4768 10.7626V9.20802C11.0951 9.24991 10.7421 9.43087 10.4853 9.71637C10.2285 10.0019 10.0857 10.3719 10.0843 10.7559L11.4768 10.7626ZM14.1681 5.06241H15.5054V6.87277L14.1681 5.98848V5.06241ZM7.31445 18.1244C7.21057 18.1178 7.11312 18.0718 7.04191 17.9959C6.97069 17.92 6.93106 17.8198 6.93106 17.7157C6.93106 17.6116 6.97069 17.5115 7.04191 17.4355C7.11312 17.3596 7.21057 17.3137 7.31445 17.307H14.041L13.4075 18.1244H7.31445ZM12.5968 21.4677C12.6262 21.4651 12.6559 21.4651 12.6854 21.4677V21.4827L12.6686 21.685C12.6436 22.0193 12.6218 22.2901 12.6218 22.5342H4.25037C3.91991 22.5342 3.60288 22.4034 3.36858 22.1703C3.13428 21.9373 3.00177 21.6209 3 21.2905V3.25037C3 2.91875 3.13174 2.60072 3.36623 2.36623C3.60072 2.13174 3.91875 2 4.25037 2H19.1813C19.5126 2.00044 19.8302 2.13237 20.0643 2.36682C20.2985 2.60126 20.43 2.91904 20.43 3.25037V12.6114C20.4317 12.7199 20.4205 12.8282 20.3965 12.9341L20.3247 12.8756C20.0423 12.6532 19.7102 12.5029 19.3568 12.4376V3.24369C19.3557 3.1989 19.3379 3.15614 19.3071 3.1237C19.2762 3.09126 19.2343 3.07147 19.1896 3.06816H4.25037C4.2038 3.0687 4.1591 3.08658 4.125 3.11831C4.09307 3.15242 4.07464 3.19699 4.07318 3.24369V21.2888C4.07351 21.3119 4.0784 21.3348 4.08758 21.356C4.09676 21.3772 4.11004 21.3964 4.12667 21.4125C4.16014 21.4454 4.2051 21.464 4.25204 21.4643L12.5968 21.4677ZM17.3024 21.2236C16.7073 21.4877 16.2292 21.6198 15.6308 21.8923C14.3637 22.3269 14.4088 22.6211 14.5041 21.3657L14.7548 19.2177L17.2088 16.0416L19.7613 18.0475L17.304 21.2236H17.3024ZM15.1911 19.552L16.8627 20.8726L15.6926 21.3925C14.7732 21.7987 14.8016 21.9942 14.9521 21.0464L15.1911 19.552Z" fill="#F9F9F9"/>
</g>
<defs>
<clipPath id="clip0_97_60">
<rect width="18" height="20.5409" fill="white" transform="translate(3 2)"/>
</clipPath>
</defs>
</svg>
